<?xml version="1.0" standalone="no"?>
<!DOCTYPE svg PUBLIC "-//W3C//DTD SVG 20010904//EN"
 "http://www.w3.org/TR/2001/REC-SVG-20010904/DTD/svg10.dtd">
<svg version="1.0" xmlns="http://www.w3.org/2000/svg"
 width="419.000000pt" height="273.000000pt" viewBox="0 0 419.000000 273.000000"
 preserveAspectRatio="xMidYMid meet">

<g transform="translate(0.000000,273.000000) scale(0.100000,-0.100000)"
fill="#000000" stroke="none">
<path d="M2501 2680 c-123 -26 -235 -81 -317 -156 -39 -36 -146 -161 -197
-231 -53 -72 -97 -162 -97 -199 0 -48 42 -121 143 -244 279 -342 472 -410 553
-195 26 68 25 284 -1 445 -22 138 -23 307 -2 370 l15 45 1 -112 c1 -71 10
-160 25 -245 14 -73 30 -168 35 -211 51 -371 -106 -565 -352 -435 -78 41 -255
215 -352 346 -37 50 -71 92 -74 92 -3 0 -31 -50 -62 -111 l-56 -111 19 -61
c10 -33 25 -122 34 -196 27 -246 42 -277 259 -511 169 -182 251 -318 320 -528
21 -62 50 -129 65 -151 69 -95 230 -109 319 -28 62 57 70 118 49 383 -23 302
33 503 167 593 50 33 50 33 130 25 100 -9 410 -6 489 6 81 13 155 51 228 118
55 51 138 161 138 184 0 4 -7 8 -15 8 -25 0 -113 89 -126 127 -22 66 17 143
72 143 41 0 14 18 -103 70 -177 77 -297 138 -341 172 -51 41 -83 100 -102 186
-19 91 -31 115 -92 175 -85 86 -250 170 -428 217 -90 24 -273 35 -344 20z
m630 -510 c22 -12 27 -68 7 -88 -19 -19 -63 -14 -86 11 -20 21 -20 23 -4 43
14 18 48 43 60 44 2 0 12 -5 23 -10z"/>
<path d="M1311 2384 c-37 -31 -69 -90 -126 -234 l-42 -105 -69 4 -69 3 -82 70
c-104 88 -208 156 -250 164 -74 14 -81 -42 -28 -215 19 -62 35 -119 35 -125 0
-6 -19 -24 -41 -40 -71 -50 -104 -108 -139 -243 -8 -32 -28 -59 -76 -108 -65
-63 -66 -65 -62 -110 3 -44 2 -45 -22 -41 -63 12 -128 15 -160 8 -29 -7 -21
-9 55 -14 50 -3 104 -12 120 -19 l30 -12 -45 -9 c-68 -14 -203 -56 -220 -69
-12 -9 -11 -10 5 -4 69 24 180 46 217 43 l43 -3 -71 -38 c-39 -21 -96 -61
-125 -88 l-54 -50 55 40 c30 22 86 54 124 72 66 31 70 32 80 14 6 -10 19 -26
28 -36 10 -10 21 -31 24 -46 11 -41 101 -125 159 -147 123 -46 165 -101 173
-220 4 -61 -2 -96 -34 -222 -32 -126 -38 -165 -38 -254 0 -97 21 -221 42 -242
4 -4 6 43 4 105 -4 138 7 204 63 371 55 163 63 221 41 306 -29 113 -82 168
-196 205 -82 26 -135 60 -161 102 -13 21 -35 54 -50 73 -15 20 -29 54 -33 80
-3 25 -9 62 -12 84 -6 37 -4 41 59 101 46 44 68 73 76 101 6 21 17 64 26 95
20 76 82 145 172 191 113 59 171 72 314 71 l125 -1 47 127 c53 141 93 219 120
235 16 9 25 4 58 -33 47 -53 122 -201 145 -286 8 -33 19 -118 24 -190 6 -98
13 -145 31 -190 21 -54 24 -77 25 -240 2 -294 18 -332 218 -530 156 -154 218
-238 277 -375 42 -96 64 -176 84 -290 l13 -75 1 91 c3 265 -95 482 -330 728
-159 168 -169 195 -188 501 -7 125 -13 161 -35 216 -21 53 -26 82 -26 151 0
170 -84 386 -197 505 -71 76 -90 82 -132 47z m-583 -170 c58 -39 202 -171 202
-185 0 -5 -10 -9 -22 -9 -13 0 -61 -13 -108 -29 -47 -16 -85 -28 -86 -28 -5 9
-74 265 -74 275 0 22 34 13 88 -24z"/>
</g>
</svg>
