<?xml version="1.0" encoding="UTF-8"?>
<svg xmlns="http://www.w3.org/2000/svg" xmlns:xlink="http://www.w3.org/1999/xlink" width="90px" height="90px" viewBox="0 0 90 90" version="1.1">
<g id="surface1">
<rect x="0" y="0" width="90" height="90" style="fill:rgb(100%,100%,100%);fill-opacity:1;stroke:none;"/>
<path style=" stroke:none;fill-rule:nonzero;fill:rgb(17.647059%,16.862746%,16.078432%);fill-opacity:1;" d="M 54.832031 15.1875 C 54.804688 15.1875 54.777344 15.191406 54.773438 15.191406 C 54.78125 15.195312 54.886719 15.191406 54.890625 15.1875 C 54.890625 15.1875 54.867188 15.1875 54.84375 15.1875 Z M 54.832031 15.1875 "/>
<path style=" stroke:none;fill-rule:nonzero;fill:rgb(17.647059%,16.862746%,16.078432%);fill-opacity:1;" d="M 53.351562 15.535156 C 53.359375 15.527344 53.246094 15.578125 53.242188 15.582031 C 53.273438 15.570312 53.316406 15.550781 53.351562 15.535156 Z M 53.351562 15.535156 "/>
<path style=" stroke:none;fill-rule:nonzero;fill:rgb(17.647059%,16.862746%,16.078432%);fill-opacity:1;" d="M 61.472656 26.65625 C 61.46875 26.667969 61.460938 26.738281 61.457031 26.757812 C 61.457031 26.773438 61.457031 26.773438 61.457031 26.761719 C 61.460938 26.753906 61.472656 26.664062 61.472656 26.65625 Z M 61.472656 26.65625 "/>
<path style=" stroke:none;fill-rule:nonzero;fill:rgb(17.647059%,16.862746%,16.078432%);fill-opacity:1;" d="M 47.671875 38.113281 C 49.984375 40.835938 54.3125 40.75 57.089844 38.792969 C 59.1875 37.382812 60.671875 35.210938 61.621094 32.894531 C 63.28125 28.753906 63.84375 23.46875 62.761719 19.121094 C 62.242188 17.0625 61.246094 15.035156 59.378906 13.894531 C 56.304688 11.996094 52.429688 13.0625 50.34375 15.910156 C 49.546875 16.957031 48.910156 18.113281 48.335938 19.292969 C 47.015625 21.980469 46.183594 24.902344 45.808594 27.871094 C 45.441406 31.230469 45.351562 35.390625 47.664062 38.105469 Z M 58.070312 35.894531 C 58.082031 35.878906 58.085938 35.875 58.09375 35.867188 C 58.09375 35.871094 58.074219 35.890625 58.070312 35.894531 Z M 59.828125 33.289062 C 59.828125 33.292969 59.800781 33.339844 59.796875 33.347656 C 59.796875 33.347656 59.820312 33.300781 59.828125 33.289062 Z M 60.722656 30.894531 C 60.730469 30.863281 60.75 30.796875 60.757812 30.761719 C 60.761719 30.757812 60.722656 30.898438 60.722656 30.898438 Z M 47.433594 28.503906 C 47.65625 25.359375 48.484375 22.238281 49.910156 19.421875 C 50.59375 18.152344 51.277344 16.78125 52.523438 15.976562 C 53.070312 15.613281 53.671875 15.378906 54.316406 15.261719 C 56.449219 14.84375 58.738281 15.910156 59.894531 17.738281 C 60.21875 18.226562 60.4375 18.675781 60.636719 19.234375 C 60.96875 20.136719 61.207031 21.085938 61.359375 22.03125 C 61.84375 25.355469 61.394531 29.441406 60.140625 32.566406 C 59.832031 33.328125 59.425781 34.132812 58.964844 34.800781 C 58.496094 35.449219 57.878906 36.148438 57.226562 36.644531 C 54.976562 38.40625 51.359375 38.53125 49.316406 36.386719 C 47.375 34.300781 47.28125 31.203125 47.433594 28.511719 Z M 47.433594 28.503906 "/>
<path style=" stroke:none;fill-rule:nonzero;fill:rgb(17.647059%,16.862746%,16.078432%);fill-opacity:1;" d="M 75.4375 40.332031 C 75.4375 40.347656 75.457031 40.195312 75.457031 40.207031 C 75.445312 40.238281 75.441406 40.296875 75.4375 40.328125 Z M 75.4375 40.332031 "/>
<path style=" stroke:none;fill-rule:nonzero;fill:rgb(17.647059%,16.862746%,16.078432%);fill-opacity:1;" d="M 76.386719 30.03125 C 74.679688 27.800781 71.566406 27.113281 69.066406 28.375 C 66.960938 29.375 64.902344 31.921875 63.597656 33.835938 C 60.972656 37.730469 57.5625 45.816406 61.085938 49.921875 C 63.417969 52.527344 67.414062 52.515625 70.214844 50.660156 C 73.457031 48.5625 75.433594 45.03125 76.6875 41.464844 C 77.84375 38.097656 78.710938 33.066406 76.390625 30.039062 Z M 61.851562 46.941406 C 61.847656 46.933594 61.832031 46.898438 61.832031 46.898438 C 61.832031 46.894531 61.832031 46.902344 61.839844 46.914062 C 61.847656 46.929688 61.855469 46.949219 61.851562 46.941406 Z M 76.054688 36.808594 C 75.890625 39.941406 74.472656 43.816406 72.589844 46.324219 C 71.296875 48.042969 69.425781 49.5 67.226562 49.707031 C 65.503906 49.851562 63.640625 49.289062 62.503906 47.9375 C 60.1875 45.179688 61.84375 40.410156 63.183594 37.507812 C 64.308594 35.191406 65.847656 32.996094 67.769531 31.265625 C 68.527344 30.578125 69.507812 30.125 70.527344 30.007812 C 72.664062 29.804688 74.757812 31.09375 75.566406 33.082031 C 76.046875 34.246094 76.101562 35.550781 76.054688 36.800781 Z M 76.054688 36.808594 "/>
<path style=" stroke:none;fill-rule:nonzero;fill:rgb(17.647059%,16.862746%,16.078432%);fill-opacity:1;" d="M 68.914062 49.304688 C 68.921875 49.304688 68.9375 49.292969 68.945312 49.289062 C 68.988281 49.265625 69.035156 49.238281 69.023438 49.238281 C 68.984375 49.253906 68.949219 49.28125 68.917969 49.300781 Z M 68.914062 49.304688 "/>
<path style=" stroke:none;fill-rule:nonzero;fill:rgb(17.647059%,16.862746%,16.078432%);fill-opacity:1;" d="M 68.394531 30.769531 C 68.371094 30.785156 68.292969 30.839844 68.285156 30.84375 C 68.289062 30.847656 68.371094 30.792969 68.390625 30.777344 C 68.410156 30.765625 68.414062 30.761719 68.398438 30.769531 Z M 68.394531 30.769531 "/>
<path style=" stroke:none;fill-rule:nonzero;fill:rgb(17.647059%,16.862746%,16.078432%);fill-opacity:1;" d="M 64.84375 34.640625 C 64.835938 34.652344 64.835938 34.652344 64.839844 34.648438 C 64.867188 34.609375 64.910156 34.550781 64.941406 34.507812 C 64.945312 34.5 64.875 34.59375 64.847656 34.636719 Z M 64.84375 34.640625 "/>
<path style=" stroke:none;fill-rule:nonzero;fill:rgb(17.647059%,16.862746%,16.078432%);fill-opacity:1;" d="M 27.113281 29.390625 C 27.644531 32.355469 28.726562 35.339844 30.816406 37.558594 C 33.410156 40.453125 38.054688 41.234375 41.148438 38.679688 C 44.972656 35.492188 44.722656 29.394531 43.867188 24.933594 C 43.277344 21.972656 42.171875 19.09375 40.578125 16.523438 C 39.222656 14.25 37.011719 12.761719 34.300781 12.945312 C 33.886719 12.972656 33.480469 13.039062 33.082031 13.140625 C 26.570312 14.984375 26.082031 23.824219 27.113281 29.382812 Z M 33.464844 15.195312 C 33.460938 15.195312 33.445312 15.195312 33.449219 15.195312 C 33.445312 15.195312 33.460938 15.195312 33.464844 15.195312 Z M 33.519531 15.1875 C 33.523438 15.1875 33.558594 15.183594 33.554688 15.183594 C 33.558594 15.183594 33.5625 15.183594 33.558594 15.183594 C 33.558594 15.183594 33.515625 15.191406 33.519531 15.1875 Z M 30.480469 16.574219 C 30.5 16.550781 30.507812 16.542969 30.519531 16.535156 C 30.523438 16.527344 30.527344 16.527344 30.523438 16.53125 C 30.511719 16.546875 30.425781 16.636719 30.410156 16.652344 C 30.398438 16.664062 30.398438 16.664062 30.414062 16.648438 C 30.429688 16.628906 30.453125 16.601562 30.472656 16.582031 Z M 28.453125 23.378906 C 28.5 21.40625 28.808594 19.382812 29.722656 17.613281 C 30.511719 16.144531 32.125 15.238281 33.773438 15.179688 C 35.707031 15.082031 37.566406 16.140625 38.632812 17.734375 C 39.417969 18.859375 40.058594 20.082031 40.605469 21.339844 C 41.679688 23.84375 42.363281 26.550781 42.550781 29.28125 C 42.671875 31.152344 42.683594 33.082031 42.070312 34.871094 C 41.460938 36.75 39.945312 37.78125 38.019531 37.972656 C 34.644531 38.214844 32.03125 36.027344 30.519531 33.171875 C 28.992188 30.222656 28.425781 26.6875 28.453125 23.390625 Z M 28.453125 23.378906 "/>
<path style=" stroke:none;fill-rule:nonzero;fill:rgb(17.647059%,16.862746%,16.078432%);fill-opacity:1;" d="M 41.390625 36.21875 C 41.410156 36.195312 41.453125 36.140625 41.472656 36.109375 C 41.46875 36.109375 41.46875 36.113281 41.464844 36.113281 C 41.453125 36.128906 41.398438 36.199219 41.382812 36.226562 C 41.371094 36.242188 41.375 36.242188 41.386719 36.226562 Z M 41.390625 36.21875 "/>
<path style=" stroke:none;fill-rule:nonzero;fill:rgb(17.647059%,16.862746%,16.078432%);fill-opacity:1;" d="M 41.847656 35.445312 C 41.855469 35.421875 41.867188 35.398438 41.878906 35.375 C 41.882812 35.359375 41.886719 35.359375 41.875 35.378906 C 41.863281 35.40625 41.839844 35.453125 41.828125 35.488281 C 41.824219 35.496094 41.824219 35.492188 41.828125 35.484375 C 41.832031 35.476562 41.835938 35.46875 41.84375 35.457031 Z M 41.847656 35.445312 "/>
<path style=" stroke:none;fill-rule:nonzero;fill:rgb(17.647059%,16.862746%,16.078432%);fill-opacity:1;" d="M 27.960938 48.046875 C 27.96875 48.03125 27.992188 48.003906 28 47.992188 C 27.976562 48.015625 27.914062 48.101562 27.90625 48.117188 C 27.910156 48.113281 27.914062 48.109375 27.921875 48.097656 C 27.929688 48.085938 27.941406 48.074219 27.953125 48.058594 Z M 27.960938 48.046875 "/>
<path style=" stroke:none;fill-rule:nonzero;fill:rgb(17.647059%,16.862746%,16.078432%);fill-opacity:1;" d="M 27.121094 48.859375 C 27.140625 48.851562 27.253906 48.761719 27.230469 48.777344 C 27.195312 48.800781 27.152344 48.832031 27.121094 48.859375 Z M 27.121094 48.859375 "/>
<path style=" stroke:none;fill-rule:nonzero;fill:rgb(17.647059%,16.862746%,16.078432%);fill-opacity:1;" d="M 14.1875 32.886719 C 14.1875 32.882812 14.207031 32.820312 14.214844 32.800781 C 14.21875 32.785156 14.21875 32.78125 14.214844 32.792969 C 14.214844 32.796875 14.1875 32.878906 14.1875 32.886719 Z M 14.1875 32.886719 "/>
<path style=" stroke:none;fill-rule:nonzero;fill:rgb(17.647059%,16.862746%,16.078432%);fill-opacity:1;" d="M 28.441406 49.808594 C 31.183594 46.917969 30.613281 42.523438 29.40625 39.0625 C 28.152344 35.449219 26.082031 32.09375 23.265625 29.496094 C 22.902344 29.167969 22.519531 28.871094 22.101562 28.617188 C 18.726562 26.566406 14.621094 28.328125 13.027344 31.765625 C 12.613281 32.605469 12.386719 33.515625 12.269531 34.441406 C 11.789062 38.34375 12.996094 42.289062 14.816406 45.714844 C 16.386719 48.566406 18.804688 51.355469 22.183594 51.886719 C 24.453125 52.261719 26.859375 51.5 28.4375 49.8125 Z M 13.972656 34.15625 C 13.972656 34.152344 13.972656 34.148438 13.972656 34.148438 C 13.972656 34.148438 13.972656 34.152344 13.972656 34.15625 Z M 13.96875 34.1875 C 13.972656 34.152344 13.976562 34.152344 13.96875 34.210938 C 13.964844 34.25 13.960938 34.289062 13.960938 34.285156 C 13.960938 34.257812 13.964844 34.230469 13.96875 34.199219 Z M 25.109375 49.644531 C 20.695312 50.367188 17.375 46.34375 15.757812 42.710938 C 14.8125 40.574219 14.085938 38.296875 13.949219 35.949219 C 13.90625 34.628906 13.898438 33.183594 14.570312 32 C 15.507812 30.332031 17.660156 29.660156 19.464844 30.144531 C 21.175781 30.585938 22.429688 31.941406 23.546875 33.226562 C 25.894531 36 27.574219 39.324219 28.367188 42.867188 C 28.546875 43.675781 28.65625 44.496094 28.65625 45.324219 C 28.648438 46.222656 28.492188 47.328125 27.945312 48.054688 C 27.285156 48.953125 26.199219 49.457031 25.117188 49.644531 Z M 25.109375 49.644531 "/>
<path style=" stroke:none;fill-rule:nonzero;fill:rgb(17.647059%,16.862746%,16.078432%);fill-opacity:1;" d="M 58.457031 72.910156 C 58.550781 72.847656 58.371094 72.945312 58.359375 72.960938 C 58.359375 72.960938 58.40625 72.9375 58.449219 72.914062 Z M 58.457031 72.910156 "/>
<path style=" stroke:none;fill-rule:nonzero;fill:rgb(17.647059%,16.862746%,16.078432%);fill-opacity:1;" d="M 63.007812 60.742188 C 63.003906 60.71875 63.003906 60.691406 63 60.675781 C 62.988281 60.703125 62.988281 60.746094 62.996094 60.773438 C 63 60.78125 63.007812 60.773438 63.007812 60.75 Z M 63.007812 60.742188 "/>
<path style=" stroke:none;fill-rule:nonzero;fill:rgb(17.647059%,16.862746%,16.078432%);fill-opacity:1;" d="M 29.730469 54.914062 C 29.664062 55.011719 29.796875 54.824219 29.792969 54.828125 C 29.773438 54.851562 29.753906 54.878906 29.738281 54.902344 Z M 29.730469 54.914062 "/>
<path style=" stroke:none;fill-rule:nonzero;fill:rgb(17.647059%,16.862746%,16.078432%);fill-opacity:1;" d="M 64.820312 60.121094 C 64.339844 55.125 61.542969 50.523438 57.488281 47.609375 C 54.558594 45.503906 51.027344 44.125 47.398438 44.03125 C 45.253906 43.992188 43.078125 44.136719 41 44.703125 C 34.476562 46.609375 29.027344 51.773438 26.414062 58.003906 C 25.578125 60.0625 25.078125 62.285156 25.089844 64.511719 C 25.140625 68.089844 26.558594 71.714844 29.179688 74.1875 C 32.054688 76.980469 36.339844 77.683594 40.105469 76.5625 C 41.347656 76.214844 42.503906 75.648438 43.628906 75.046875 C 43.863281 74.933594 44.105469 74.835938 44.355469 74.769531 C 45.503906 74.46875 46.445312 74.871094 47.453125 75.382812 C 50.664062 76.941406 54.554688 77.179688 57.734375 75.402344 C 62.925781 72.398438 65.417969 65.941406 64.824219 60.128906 Z M 38.796875 47.519531 C 38.8125 47.511719 38.859375 47.492188 38.878906 47.488281 C 38.90625 47.476562 38.902344 47.476562 38.871094 47.492188 C 38.84375 47.503906 38.800781 47.519531 38.796875 47.519531 Z M 26.910156 62.242188 C 26.910156 62.242188 26.910156 62.246094 26.910156 62.246094 C 26.910156 62.246094 26.910156 62.242188 26.910156 62.242188 Z M 26.976562 65.078125 C 26.976562 65.082031 26.976562 65.085938 26.976562 65.085938 C 26.976562 65.082031 26.976562 65.082031 26.976562 65.078125 Z M 28.039062 68.660156 C 28.03125 68.644531 28.011719 68.605469 28 68.582031 C 27.996094 68.570312 27.996094 68.570312 28.003906 68.582031 C 28.011719 68.597656 28.035156 68.652344 28.039062 68.65625 Z M 63.125 63.515625 C 62.945312 67.363281 61.164062 71.410156 57.714844 73.367188 C 54.886719 74.972656 51.304688 74.574219 48.480469 73.160156 C 47.167969 72.464844 45.882812 72.1875 44.4375 72.660156 C 43.785156 72.867188 43.191406 73.230469 42.589844 73.542969 C 39.542969 75.097656 35.683594 75.347656 32.628906 73.679688 C 29.074219 71.761719 26.996094 67.707031 26.867188 63.742188 C 26.816406 62.058594 27.128906 60.371094 27.707031 58.785156 C 29.542969 53.796875 34.035156 49.425781 38.9375 47.464844 C 40.230469 46.949219 41.59375 46.589844 42.980469 46.433594 C 44.777344 46.238281 46.609375 46.179688 48.410156 46.429688 C 50.195312 46.671875 51.910156 47.277344 53.515625 48.074219 C 59.324219 50.894531 63.492188 56.9375 63.125 63.507812 Z M 63.125 63.515625 "/>
<path style=" stroke:none;fill-rule:nonzero;fill:rgb(17.647059%,16.862746%,16.078432%);fill-opacity:1;" d="M 27.382812 59.769531 C 27.378906 59.785156 27.347656 59.894531 27.34375 59.921875 C 27.355469 59.878906 27.375 59.808594 27.382812 59.769531 Z M 27.382812 59.769531 "/>
<path style=" stroke:none;fill-rule:nonzero;fill:rgb(17.647059%,16.862746%,16.078432%);fill-opacity:1;" d="M 59.796875 71.753906 C 59.761719 71.785156 59.71875 71.828125 59.683594 71.859375 C 59.675781 71.867188 59.6875 71.859375 59.707031 71.839844 C 59.730469 71.816406 59.769531 71.78125 59.796875 71.753906 Z M 59.796875 71.753906 "/>
<path style=" stroke:none;fill-rule:nonzero;fill:rgb(17.647059%,16.862746%,16.078432%);fill-opacity:1;" d="M 60.84375 70.480469 C 60.859375 70.460938 60.902344 70.398438 60.90625 70.390625 C 60.910156 70.386719 60.894531 70.40625 60.894531 70.410156 C 60.886719 70.421875 60.804688 70.53125 60.839844 70.484375 Z M 60.84375 70.480469 "/>
</g>
</svg>
