<?xml version="1.0" encoding="UTF-8"?>
<svg version="1.1" xmlns="http://www.w3.org/2000/svg" width="512" height="512">
<path d="M0 0 C1.01790619 0.00215515 2.03581238 0.0043103 3.08456421 0.00653076 C17.69363523 0.05620146 32.02575853 0.30709809 46.375 3.3125 C47.34985352 3.51117676 48.32470703 3.70985352 49.32910156 3.91455078 C88.37782454 12.08284366 124.83813271 27.70153311 156.375 52.3125 C157.27089844 52.99699219 158.16679687 53.68148437 159.08984375 54.38671875 C165.85375932 59.65466563 172.17242313 65.40219115 178.375 71.3125 C178.97538086 71.88419922 179.57576172 72.45589844 180.19433594 73.04492188 C188.53034882 81.04095281 196.17384608 89.25373428 203.05566406 98.53564453 C204.41568182 100.36728947 205.79649374 102.18190483 207.1796875 103.99609375 C213.5480373 112.42343333 219.17969786 121.11991515 224.375 130.3125 C224.73803223 130.94285156 225.10106445 131.57320312 225.47509766 132.22265625 C247.08503355 169.97093421 256.85198837 212.73995161 256.6875 255.9375 C256.68534485 256.95540619 256.6831897 257.97331238 256.68096924 259.02206421 C256.63129854 273.63113523 256.38040191 287.96325853 253.375 302.3125 C253.07698486 303.77478027 253.07698486 303.77478027 252.77294922 305.26660156 C244.60465634 344.31532454 228.98596689 380.77563271 204.375 412.3125 C203.69050781 413.20839844 203.00601562 414.10429687 202.30078125 415.02734375 C197.03283437 421.79125932 191.28530885 428.10992313 185.375 434.3125 C184.51745117 435.21307129 184.51745117 435.21307129 183.64257812 436.13183594 C175.6343274 444.48058817 167.41011118 452.12586051 158.11230469 459.01513672 C156.39124144 460.30037142 154.698612 461.6167016 153.0078125 462.94140625 C122.05599233 486.84699932 84.66878791 502.15926624 46.375 509.3125 C45.56998047 509.47476074 44.76496094 509.63702148 43.93554688 509.80419922 C13.88950647 515.6788185 -20.75595352 514.58629779 -50.625 508.3125 C-52.14794678 507.99901611 -52.14794678 507.99901611 -53.70166016 507.67919922 C-90.93790584 499.76731191 -125.56559467 483.59756002 -155.625 460.3125 C-156.97271484 459.28382813 -156.97271484 459.28382813 -158.34765625 458.234375 C-165.10647392 452.96442525 -171.42437048 447.22095326 -177.625 441.3125 C-178.22538086 440.74080078 -178.82576172 440.16910156 -179.44433594 439.58007812 C-187.79308817 431.5718274 -195.43836051 423.34761118 -202.32763672 414.04980469 C-203.61287142 412.32874144 -204.9292016 410.636112 -206.25390625 408.9453125 C-230.15949932 377.99349233 -245.47176624 340.60628791 -252.625 302.3125 C-252.78726074 301.50748047 -252.94952148 300.70246094 -253.11669922 299.87304688 C-258.58955505 271.88184616 -258.4709259 238.22377604 -252.625 210.3125 C-252.42632324 209.33764648 -252.22764648 208.36279297 -252.02294922 207.35839844 C-241.7272891 158.1397446 -219.29081567 114.71000304 -184.625 78.3125 C-184.05475098 77.71356934 -183.48450195 77.11463867 -182.89697266 76.49755859 C-174.89943802 68.16006957 -166.68545927 60.51490955 -157.40185547 53.63183594 C-155.57021053 52.27181818 -153.75559517 50.89100626 -151.94140625 49.5078125 C-143.51406667 43.1394627 -134.81758485 37.50780214 -125.625 32.3125 C-124.99464844 31.94946777 -124.36429688 31.58643555 -123.71484375 31.21240234 C-85.96656579 9.60246645 -43.19754839 -0.16448837 0 0 Z " fill="#4BAE4F" transform="translate(255.625,-0.3125)"/>
<path d="M0 0 C4.55741834 2.26888715 7.21567913 5.63659125 8.875 10.33984375 C9.4668833 14.94942841 9.43882619 19.52719645 9.42089844 24.16967773 C9.42964224 25.56971887 9.44013083 26.96975003 9.45222473 28.36976624 C9.48000708 32.15443503 9.48349115 35.9387765 9.48250484 39.72353244 C9.48564067 43.68474521 9.51127276 47.64581201 9.53448486 51.60694885 C9.57499729 59.10073251 9.59537434 66.59442926 9.60845876 74.08830553 C9.62434496 82.62284521 9.66276738 91.15723732 9.70305204 99.69169128 C9.78538583 117.24103137 9.83951862 134.79034767 9.875 152.33984375 C10.57244576 151.63573616 10.57244576 151.63573616 11.28398132 150.91740417 C16.12847186 146.02863391 20.98001396 141.14694388 25.83569336 136.26928711 C27.64642871 134.44850022 29.45536417 132.62592152 31.26245117 130.80151367 C33.86164701 128.17803296 36.46726771 125.56108422 39.07421875 122.9453125 C39.87961594 122.12959274 40.68501312 121.31387299 41.51481628 120.47343445 C42.2752272 119.71287247 43.03563812 118.95231049 43.8190918 118.16870117 C44.48305466 117.50029709 45.14701752 116.83189301 45.83110046 116.14323425 C50.77120383 111.784441 54.60225218 110.68529009 61.078125 110.8515625 C65.63178678 111.64654535 68.78795083 113.96652686 71.875 117.33984375 C73.76388523 120.33983794 74.17103007 122.69027914 74.1875 126.21484375 C74.20425781 127.03726563 74.22101563 127.8596875 74.23828125 128.70703125 C73.30120066 135.4983465 68.92736953 139.72070275 64.27978516 144.32324219 C63.61438217 144.99390213 62.94897919 145.66456207 62.26341248 146.35554504 C60.07109438 148.56102188 57.8680383 150.7553962 55.6640625 152.94921875 C54.13289219 154.48241072 52.6021674 156.01604773 51.0718689 157.55010986 C47.86722144 160.7591749 44.65722384 163.96276424 41.44335938 167.16259766 C37.32507279 171.26377859 33.22041972 175.37829944 29.11966896 179.49700546 C25.96296194 182.66455305 22.79914436 185.82492047 19.63312912 188.98316193 C18.11667028 190.49762029 16.60243471 192.01430825 15.09047318 193.53325653 C12.97715868 195.65419119 10.85446278 197.76526859 8.72900391 199.87402344 C8.10649246 200.50260757 7.48398102 201.13119171 6.84260559 201.77882385 C2.47299087 206.08504684 -1.23661285 208.60208284 -7.5625 208.71484375 C-8.28308594 208.74320313 -9.00367188 208.7715625 -9.74609375 208.80078125 C-16.01749912 207.5856321 -20.69495921 202.05254272 -25.01660156 197.69116211 C-25.67750793 197.03215408 -26.33841431 196.37314606 -27.01934814 195.69416809 C-29.18968198 193.52752122 -31.3527615 191.35378967 -33.515625 189.1796875 C-35.02647003 187.66764963 -36.53768571 186.15598204 -38.04925537 184.64466858 C-41.20944909 181.48291371 -44.36626322 178.31783617 -47.52050781 175.15014648 C-51.56628034 171.08734836 -55.61864079 167.03120043 -59.67331314 162.97728634 C-62.79107626 159.85925156 -65.90622843 156.73861947 -69.02050018 153.61709785 C-70.51425946 152.1201546 -72.00862677 150.62381783 -73.5036087 149.12809563 C-75.58859544 147.04094456 -77.67025839 144.95053623 -79.75097656 142.85913086 C-80.37020996 142.24035065 -80.98944336 141.62157043 -81.62744141 140.98403931 C-82.19368225 140.41353348 -82.7599231 139.84302765 -83.34332275 139.25523376 C-83.83514164 138.76173903 -84.32696053 138.2682443 -84.83368301 137.75979519 C-88.78476406 133.41512748 -88.54581528 129.90114775 -88.4375 124.2890625 C-87.87117474 118.94436785 -85.36081746 116.48523555 -81.5625 112.96484375 C-76.78138538 110.70468048 -72.29547527 110.07775923 -67.125 111.33984375 C-60.9211674 115.2302522 -55.79983574 120.39683477 -50.6875 125.58203125 C-49.92195801 126.35040314 -49.15641602 127.11877502 -48.36767578 127.91043091 C-45.94867044 130.34053799 -43.53675318 132.77754131 -41.125 135.21484375 C-39.47572583 136.87416064 -37.82599062 138.53301943 -36.17578125 140.19140625 C-32.15350971 144.23560526 -28.13701787 148.28547381 -24.125 152.33984375 C-24.12353344 151.61446631 -24.12206688 150.88908888 -24.12055588 150.14173031 C-24.08348248 132.48070651 -24.02446077 114.81989219 -23.94109726 97.15902615 C-23.90131068 88.61830269 -23.86891628 80.07767133 -23.85400391 71.53686523 C-23.84098538 64.09151884 -23.8140157 56.6463751 -23.77038693 49.20114285 C-23.74777647 45.25996053 -23.73208906 41.31902812 -23.73311615 37.37777519 C-23.73386302 33.66515252 -23.71590204 29.95308221 -23.68383217 26.24060249 C-23.67130351 24.23453732 -23.6783951 22.22837938 -23.68614197 20.22229004 C-23.60722159 13.39015064 -23.32190075 8.843449 -19.125 3.33984375 C-13.77598381 -1.74824483 -6.89593435 -2.14230313 0 0 Z " fill="#FEFEFE" transform="translate(263.125,128.66015625)"/>
<path d="M0 0 C1.39015434 -0.00542472 2.78030292 -0.01254935 4.17044067 -0.02124023 C7.93497509 -0.0394353 11.69906975 -0.03242215 15.4636116 -0.01972389 C19.40861419 -0.00957629 23.35357987 -0.01899445 27.29858398 -0.02526855 C33.92275736 -0.03253986 40.54675219 -0.02297092 47.17089844 -0.00390625 C54.82251133 0.01786163 62.47369785 0.01080988 70.12530041 -0.01121187 C76.70214321 -0.0293807 83.27885786 -0.03191699 89.85571766 -0.0214572 C93.78058165 -0.01523037 97.70524542 -0.01436415 101.63009644 -0.02760315 C105.32060518 -0.03918278 109.01056577 -0.03109814 112.70101547 -0.00802612 C114.69651288 -0.00023921 116.69205681 -0.01207692 118.68753052 -0.02453613 C129.58648707 0.07838911 129.58648707 0.07838911 134.37890625 4.51757812 C137.80807697 8.21747285 138.67860374 11.09681303 138.87890625 16.01757812 C138.66426625 20.96771301 137.88665164 23.83444547 134.37890625 27.51757812 C127.80692639 33.2516472 121.35063283 33.23278523 112.9296875 33.16455078 C111.58188703 33.17133657 110.23409585 33.18024509 108.88632202 33.19110107 C105.2456451 33.21378764 101.60568101 33.205103 97.96499252 33.18920565 C94.14371662 33.17649092 90.32249917 33.18830216 86.5012207 33.19613647 C80.085664 33.20521693 73.67039567 33.19328757 67.25488281 33.16943359 C59.85197875 33.1422251 52.44976334 33.15104042 45.04687595 33.17856562 C38.67545739 33.20130174 32.30424539 33.2044349 25.93279934 33.19137228 C22.13417216 33.18360235 18.33586801 33.18246781 14.53726196 33.19905472 C10.96478891 33.21356634 7.39319821 33.20335805 3.82081985 33.17458344 C1.89491213 33.16488704 -0.03107078 33.17961574 -1.9569397 33.19522095 C-9.13654049 33.10800141 -14.11410086 32.32244337 -19.62109375 27.51757812 C-23.12883914 23.83444547 -23.90645375 20.96771301 -24.12109375 16.01757812 C-23.86671874 9.76843202 -21.88652944 6.61603755 -17.32397461 2.38977051 C-12.21350264 -0.89172651 -5.839411 -0.03645976 0 0 Z " fill="#FCFDFC" transform="translate(198.62109375,352.482421875)"/>
</svg>
